<svg xmlns="http://www.w3.org/2000/svg" width="120" height="45" viewBox="0 0 340.157 127.559"><defs/><path d="M214.462 24.178c.072.197.253.126.384.14a14.31 14.31 0 012.954.66 8.368 8.368 0 015.995 7.277 22.192 22.192 0 01-.277 7.104c-.445 2.607-1.152 5.153-1.792 7.713a8.24 8.24 0 01-2.945 4.411 13.878 13.878 0 01-4.484 2.387c-.628.207-1.27.377-1.899.594.91.267 1.831.389 2.726.657a6.659 6.659 0 014.97 5.883 22.88 22.88 0 01-.226 6.384 64.62 64.62 0 01-1.885 8.78 13.031 13.031 0 01-4.842 6.92 14.293 14.293 0 01-8.63 2.894q-18.618-.008-37.238-.002h-.788c.146-.9.276-1.727.413-2.552q1.628-9.784 3.26-19.567 1.658-9.92 3.326-19.838 1.64-9.81 3.268-19.622c.012-.074.014-.149.02-.224zM181.841 59.48a1.999 1.999 0 00-.092.266q-1.03 6.149-2.056 12.298a6.267 6.267 0 00-.123 2.286 2.286 2.286 0 001.89 1.948c6.71.073 13.42.16 20.129.198a5.444 5.444 0 005.211-3.349 21.29 21.29 0 001.603-5.48 11.944 11.944 0 00.199-4.407 4.141 4.141 0 00-4.182-3.557c-1.196.057-2.398-.028-3.598-.04q-9.165-.084-18.33-.163c-.204-.002-.409 0-.651 0zm1.58-9.473c.204.011.352.026.5.026q10.909.002 21.818-.009a4.79 4.79 0 002.816-1.005 7.584 7.584 0 002.772-4.242 24.974 24.974 0 00.77-5.1 12.143 12.143 0 00-.1-2.972 3.623 3.623 0 00-2.039-2.904 5.408 5.408 0 00-2.307-.396l-19.12-.006a2.22 2.22 0 00-1.345.466 4.4 4.4 0 00-1.75 3.086q-.487 3.136-.97 6.273c-.346 2.237-.69 4.475-1.045 6.783z" fill="#0071b8"/><path d="M81.255 103.382a3.636 3.636 0 01.912-1.11c1.723-1.9 3.483-3.763 5.22-5.65q3.401-3.694 6.785-7.406a.646.646 0 01.586-.254 3.434 3.434 0 00.393.003h169.021l-2.345 14.417zm48.715-3.142c.916 0 1.755.02 2.593-.005a2.89 2.89 0 002.727-1.909 6.976 6.976 0 00.223-3.659 3.059 3.059 0 00-3.252-2.768q-1.237-.003-2.474 0c-1.171 0-1.586.414-1.586 1.588q-.003 4.386.002 8.771a.856.856 0 00.07.556h1.697zm22.264-4.469c1.045-.214 1.41-.656 1.411-1.637 0-.15-.001-.3-.015-.448a1.83 1.83 0 00-1.923-1.785q-1.967-.01-3.933 0a1.285 1.285 0 00-1.436 1.318q-.052 2.808.002 5.618a1.334 1.334 0 001.33 1.395c1.424.023 2.848.026 4.27-.002a1.633 1.633 0 001.474-.96 3.126 3.126 0 00.23-1.534c.003-1.203-.262-1.58-1.41-1.965zm55.26-.02a1.31 1.31 0 001.358-.96 2.4 2.4 0 00-.38-2.23 1.67 1.67 0 00-1.36-.66c-1.385-.003-2.77-.01-4.155.002a1.24 1.24 0 00-1.315 1.255q-.04 2.863 0 5.727a1.33 1.33 0 001.368 1.35c1.404.017 2.808.021 4.211-.004a1.636 1.636 0 001.48-.946 2.974 2.974 0 00.242-1.476c-.004-1.277-.23-1.613-1.448-2.058zm-42.168.954h.647c1.274 0 2.548.008 3.822-.003.771-.007 1.126-.375 1.138-1.15.008-.487.019-.976-.006-1.461a2.285 2.285 0 00-2.261-2.19q-1.265-.015-2.53 0a2.66 2.66 0 00-2.64 2.472 35.107 35.107 0 00-.002 3.426 2.522 2.522 0 002.587 2.439c1.461.011 2.923.004 4.384 0a.617.617 0 00.46-.078 8.844 8.844 0 00-.036-1.493c-1.397 0-2.762-.006-4.127.003a1.347 1.347 0 01-1.047-.436 1.7 1.7 0 01-.389-1.529zm34.734 3.519v-.445-6.633c-.001-.705-.215-1.08-.683-1.216a1.459 1.459 0 00-1.651.517q-1.748 2.544-3.493 5.09c-.047.069-.086.175-.25.103v-5.713h-1.722c0 2.44-.01 4.854.008 7.266a1.024 1.024 0 00.839 1.007 1.201 1.201 0 001.356-.44c.322-.436.616-.893.923-1.34l2.805-4.088.11.029v5.863zm-77.31.017c.393 0 .786.002 1.18 0a2.89 2.89 0 002.978-2.86c.034-.859.029-1.722.002-2.582a2.957 2.957 0 00-3.01-2.907c-.803.042-1.61.031-2.415.002a2.918 2.918 0 00-2.874 2.738c-.041.953-.042 1.91-.004 2.863a2.85 2.85 0 002.852 2.745c.43.005.86 0 1.291 0zm91.472-8.342c-.412 0-.824.018-1.235-.003a2.925 2.925 0 00-2.916 2.815c-.023.917-.03 1.835 0 2.751a2.856 2.856 0 002.879 2.777c.824.008 1.647.006 2.47 0a2.882 2.882 0 002.955-2.824c.04-.878.033-1.76.001-2.639a2.94 2.94 0 00-3.031-2.88c-.373.024-.749.003-1.123.003zm-73.256 8.342c.412 0 .824.002 1.236 0a2.9 2.9 0 002.94-2.84c.032-.879.032-1.76-.001-2.639a2.946 2.946 0 00-2.988-2.87 18.474 18.474 0 01-2.246-.002 2.982 2.982 0 00-3.085 3.06c.02.786-.007 1.573.006 2.36a2.881 2.881 0 002.96 2.93c.392.003.785 0 1.178 0zm-23.638-1.497c-.056-.12-.099-.202-.135-.288-.743-1.777-1.482-3.556-2.23-5.33a1.955 1.955 0 00-.776-1.003 1.624 1.624 0 00-2.38.907c-.322.776-.588 1.576-.882 2.364-.416 1.118-.834 2.234-1.248 3.34l-.623.058v1.405h8.898a8.535 8.535 0 00-.054-1.422zm37.731-6.828c-.008.144-.017.235-.017.327q-.001 3.232.001 6.465a3.527 3.527 0 00.038.56.985.985 0 001.097.966q2.192.023 4.385.002a1.623 1.623 0 001.454-.899 3.845 3.845 0 00.29-2.522 2.407 2.407 0 00-2.421-2.055c-.88 0-1.762.005-2.642-.004a.968.968 0 01-.691-.112v-2.728zm83.048 2.794v-2.77H236.6l.001 6.954a2.412 2.412 0 00.03.336.998.998 0 001.119 1.005q2.192.021 4.385 0a1.624 1.624 0 001.416-.865 3.747 3.747 0 00.353-2.128 2.465 2.465 0 00-2.484-2.482c-.581 0-1.162.008-1.743-.002a9.755 9.755 0 01-1.57-.048zm-3.33 5.507v-8.293h-1.65v3.217h-3.743v-3.2h-1.629v8.266h1.657v-3.689h3.729v3.7zm-127.962-4.43c.902-.202 1.415-.543 1.522-1.092a2.122 2.122 0 00-2.105-2.801c-1.386.025-2.774.003-4.16.007-.143 0-.303-.051-.418.085v1.103a1.044 1.044 0 00.57.062c1.011.006 2.023-.006 3.035.006a1.14 1.14 0 011.204 1.13 1.05 1.05 0 01-1.174 1.014c-1.03.013-2.062.004-3.093.012-.18.001-.375-.06-.529.065v1.113c1.216 0 2.394-.007 3.572.002.815.006 1.223.393 1.226 1.132a1.101 1.101 0 01-1.218 1.221c-.543.016-1.087-.007-1.63.007-.651.016-1.305-.068-1.972.012a5.28 5.28 0 00.046 1.376c1.505 0 2.985-.01 4.464.004a1.88 1.88 0 002.019-1.113 2.927 2.927 0 00-.133-2.69c-.275-.445-.751-.513-1.226-.655zm143.403.292l-2.931 4.143h2.003l1.941-2.706 1.942 2.698h2.004l-2.928-4.134 2.945-4.155h-2.009l-1.955 2.73-1.936-2.716h-2.014zm-23.542-4.14h-7.704a5.636 5.636 0 00.041 1.238h2.988v7.022h1.82v-7.04h2.856zm-34.924 8.293l-.27-.321c-1.002-1.185-1.995-2.379-3.012-3.55a.634.634 0 01-.003-.975c.461-.516.905-1.047 1.352-1.575.513-.607 1.02-1.217 1.583-1.888h-1.858l-.924 1.084c-.678.799-1.35 1.601-2.034 2.394a.594.594 0 00-.01.927c.335.35.621.747.936 1.117.798.938 1.6 1.872 2.383 2.787zm-12.52-8.302c.919 1.113 1.78 2.162 2.647 3.205.556.67.56.811.001 1.484-.705.849-1.413 1.694-2.115 2.545-.275.333-.534.68-.83 1.056h1.78c1.16-1.451 2.402-2.837 3.535-4.372l-3.207-3.918zm6.876 8.29v-8.331a16.403 16.403 0 00-1.735.056v8.275zm60.273-.058v-8.227h-1.665v8.306c.482 0 .929.001 1.375-.002a.346.346 0 00.29-.077z" fill="#d42c27"/><path d="M172.61 24.178a32.172 32.172 0 01-.494 3.327q-1.201 7.347-2.428 14.69-1.212 7.317-2.426 14.633l-2.41 14.58q-1.178 7.123-2.359 14.246c-.014.089-.036.177-.06.294h-11.747l2.96-15.257a.939.939 0 00-.655-.112q-13.19-.004-26.38-.013a1.268 1.268 0 00-1.02.45c-1.834 1.975-3.681 3.938-5.522 5.907q-3.987 4.267-7.963 8.543a1.495 1.495 0 01-1.214.528c-4.106-.022-8.212-.011-12.318-.014a1.292 1.292 0 01-.642-.065 22.87 22.87 0 011.787-1.92c2.772-2.894 5.568-5.765 8.351-8.649q2.867-2.97 5.726-5.949 4.403-4.572 8.807-9.142 3.877-4.026 7.752-8.053l6.82-7.079c2.598-2.697 5.208-5.383 7.788-8.097 2.025-2.13 4.08-4.232 6.091-6.375a19.677 19.677 0 014.76-3.633 21.432 21.432 0 018.94-2.75.51.51 0 00.318-.09zm-12.084 11.105a2.428 2.428 0 00-2.143.828q-2.192 2.294-4.36 4.61-3.55 3.79-7.09 7.588c-1.741 1.857-3.495 3.702-5.238 5.557q-3.708 3.95-7.408 7.906c-.134.144-.308.264-.328.512h21.321l5.246-27zM260.14 24.178c.742.197 1.52.163 2.265.338a10.577 10.577 0 015.013 2.362 8.802 8.802 0 012.615 5.102 21.396 21.396 0 01-.253 7.49c-.446 2.586-1.146 5.116-1.788 7.656a8.096 8.096 0 01-2.714 4.177 13.119 13.119 0 01-4.49 2.49c-.702.23-1.402.471-2.122.662.842.287 1.708.388 2.55.613 3.47.929 4.964 3.42 5.233 6.634a26.027 26.027 0 01-.447 6.6 62.73 62.73 0 01-1.725 7.842 13.104 13.104 0 01-4.831 6.928 14.486 14.486 0 01-8.848 2.913c-9.131-.047-18.262-.057-27.393-.085-2.906-.01-5.812-.032-8.718-.048a2.013 2.013 0 01-.526-.05c3.826-2.046 6.796-4.822 7.983-9.106a1.385 1.385 0 01.703-.076q12.402-.068 24.804-.13a7.434 7.434 0 002.476-.413 5.538 5.538 0 003.116-2.913 20.971 20.971 0 001.712-5.913 10.484 10.484 0 00.092-4.131 4.16 4.16 0 00-2.99-3.33 2.698 2.698 0 00-.779-.089c-2.38-.026-4.761-.056-7.142-.077q-8.156-.07-16.311-.133h-.595l1.773-9.597a.906.906 0 01.542-.076q9.786.078 19.573.16c.843.008 1.687.032 2.53.05a5.736 5.736 0 005.268-3.13 13.217 13.217 0 001.497-5.428 17.172 17.172 0 00.131-4.316 5.332 5.332 0 00-.565-1.93 3.676 3.676 0 00-3.284-1.807c-.374-.024-.75-.013-1.125-.013l-24.861-.001h-.718c-.051-.577-.09-1.13-.15-1.682a10.67 10.67 0 00-1.657-4.898 8.774 8.774 0 00-2.496-2.39c-.123-.081-.278-.119-.363-.256z" fill="#0071b8"/><path d="M109.944 24.178a9.898 9.898 0 004.625 7.46 8.99 8.99 0 004.476 1.456c.13.006.262.013.392.024a.601.601 0 01.117.037c.127.136.067.313.071.472a73.828 73.828 0 01-.695 12.556 52.171 52.171 0 01-4.91 16.074 40.407 40.407 0 01-4.98 7.647 37.965 37.965 0 01-6.43 6.15 31.794 31.794 0 01-7.547 4.239.738.738 0 01-.544-.004 28.209 28.209 0 01-5.861-2.91 35.663 35.663 0 01-7.356-6.365 39.59 39.59 0 01-4.766-6.71 46.33 46.33 0 01-4.261-10.401 62.778 62.778 0 01-2.177-13.61c-.01-.168-.03-.336-.045-.502a16.668 16.668 0 00-.16-1.888v-4.838a5.676 5.676 0 002.252-.172 9.738 9.738 0 006.322-4.798 8.836 8.836 0 001.213-3.917zm-1.25 2.278H80.938a9.187 9.187 0 01-2.9 5.77 8.53 8.53 0 01-6.017 2.35c-.019.204-.041.35-.045.498a68.286 68.286 0 00.927 13.437 44.749 44.749 0 006.148 16.56 33.916 33.916 0 006.736 7.777 31.926 31.926 0 002.956 2.226 24.574 24.574 0 005.67 2.897 1.146 1.146 0 00.811-.016 23.808 23.808 0 004.015-1.97 32.408 32.408 0 005.29-3.956 35.673 35.673 0 006.617-8.17 43.558 43.558 0 004.783-11.809 61.428 61.428 0 001.729-13.854c.023-1.175.033-2.35-.044-3.52a9.201 9.201 0 01-8.92-8.22z" fill="#0d0c0c"/><path d="M69.892 37.903a16.668 16.668 0 01.161 1.888c-.053.045-.107.09-.16.137z" fill="#0071b8"/><path d="M129.97 100.24v2.574h-1.696a.856.856 0 01-.071-.556q-.006-4.385-.002-8.77c0-1.175.415-1.588 1.586-1.589h2.474a3.059 3.059 0 013.252 2.768 6.976 6.976 0 01-.223 3.66 2.89 2.89 0 01-2.727 1.908c-.838.026-1.677.005-2.593.005zm3.826-4.184c0-.262-.004-.524 0-.787a2.05 2.05 0 00-2.077-2.048c-.334.03-.674-.001-1.011.006-.507.012-.74.208-.745.7-.014 1.424-.005 2.848-.003 4.272a.592.592 0 00.614.657 11.94 11.94 0 001.46-.011 1.816 1.816 0 001.214-.624 2.779 2.779 0 00.548-2.165zM152.234 95.771c1.148.385 1.413.762 1.41 1.965a3.126 3.126 0 01-.23 1.535 1.633 1.633 0 01-1.473.959 120.31 120.31 0 01-4.27.002 1.334 1.334 0 01-1.331-1.395q-.055-2.808-.002-5.618a1.285 1.285 0 011.436-1.318q1.966-.01 3.933 0a1.83 1.83 0 011.923 1.785c.014.148.015.299.015.448-.002.981-.366 1.423-1.411 1.637zm-2.487 3.078v-.009c.41 0 .824.033 1.23-.007.643-.065.966-.537.937-1.294a.978.978 0 00-1.004-1.042c-.784-.02-1.569-.001-2.353-.008-.358-.003-.504.166-.494.516.01.41.01.822 0 1.232-.01.431.215.61.62.612.354.002.709 0 1.064 0zm.004-5.695h-.224c-1.637.017-1.457-.235-1.458 1.526-.001.496.132.616.646.622.711.008 1.422.012 2.133-.002a.994.994 0 001.064-1.042 1.091 1.091 0 00-1.095-1.102c-.355-.01-.71-.002-1.066-.002zM207.495 95.751c1.218.445 1.444.781 1.448 2.058a2.974 2.974 0 01-.241 1.476 1.636 1.636 0 01-1.48.946c-1.404.025-2.808.021-4.212.004a1.33 1.33 0 01-1.368-1.35q-.041-2.863 0-5.727a1.24 1.24 0 011.315-1.255c1.385-.012 2.77-.005 4.155-.002a1.67 1.67 0 011.36.66 2.4 2.4 0 01.38 2.23 1.31 1.31 0 01-1.357.96zm-2.478.74c-.393 0-.785.005-1.177-.001a.426.426 0 00-.497.467c-.006.448-.009.896.003 1.344a.5.5 0 00.524.54c.803.012 1.608.034 2.408-.014.618-.037.963-.545.938-1.24a1.006 1.006 0 00-1.023-1.091c-.391-.017-.784-.004-1.176-.005zm.042-3.337h-.28c-1.515.016-1.454-.263-1.436 1.51.005.489.156.63.646.638.71.01 1.422.011 2.133 0a1.004 1.004 0 001.087-1.027 1.105 1.105 0 00-1.083-1.118c-.355-.013-.711-.003-1.067-.003zM165.326 96.705a1.7 1.7 0 00.39 1.529 1.347 1.347 0 001.046.436c1.365-.01 2.73-.003 4.127-.003a8.844 8.844 0 01.036 1.493.617.617 0 01-.46.079c-1.461.003-2.923.01-4.384-.001a2.522 2.522 0 01-2.587-2.439 35.107 35.107 0 01.001-3.426 2.66 2.66 0 012.642-2.472q1.264-.014 2.529 0a2.285 2.285 0 012.261 2.19c.025.485.014.974.006 1.46-.012.776-.367 1.144-1.138 1.151-1.274.011-2.548.003-3.821.003h-.648zm.045-1.577h3.844a1.56 1.56 0 00-.9-1.783 3.044 3.044 0 00-1.333-.097 1.524 1.524 0 00-1.61 1.88zM200.06 100.224h-1.758V94.36l-.11-.028-2.805 4.087c-.307.447-.6.904-.923 1.34a1.201 1.201 0 01-1.356.44 1.024 1.024 0 01-.839-1.007c-.018-2.412-.008-4.825-.008-7.266h1.723v5.713c.163.072.201-.034.249-.103q1.748-2.544 3.493-5.09a1.459 1.459 0 011.65-.517c.469.136.683.51.683 1.216q.003 3.317.001 6.633zM122.75 100.24c-.43 0-.861.005-1.291 0a2.85 2.85 0 01-2.852-2.745c-.038-.953-.037-1.91.004-2.863a2.918 2.918 0 012.874-2.738c.804.03 1.612.04 2.414-.002a2.957 2.957 0 013.01 2.907c.028.86.033 1.723 0 2.583a2.89 2.89 0 01-2.98 2.858c-.393.003-.786 0-1.179 0zm2.437-4.163c-.013-.3-.006-.602-.043-.898a2.409 2.409 0 00-1.912-2.024 2.366 2.366 0 00-2.654 1.412 4.57 4.57 0 00-.088 2.763 2.048 2.048 0 001.682 1.622 2.355 2.355 0 002.402-.718 2.972 2.972 0 00.613-2.157zM214.222 91.9c.374 0 .75.02 1.123-.005a2.94 2.94 0 013.031 2.881c.032.879.039 1.76-.001 2.639a2.882 2.882 0 01-2.954 2.825c-.824.005-1.647.007-2.47 0a2.856 2.856 0 01-2.88-2.778 46.459 46.459 0 010-2.75 2.925 2.925 0 012.916-2.816c.41.021.823.003 1.235.003zm2.405 4.166c0-.263.02-.527-.003-.787a2.398 2.398 0 00-1.934-2.125 2.362 2.362 0 00-2.67 1.474 4.609 4.609 0 00-.06 2.713 2.059 2.059 0 001.692 1.614 2.353 2.353 0 002.398-.73 2.851 2.851 0 00.577-2.16zM140.966 100.24c-.393 0-.786.003-1.179 0a2.881 2.881 0 01-2.959-2.93c-.013-.787.015-1.573-.006-2.359a2.982 2.982 0 013.085-3.06 18.474 18.474 0 002.246.002 2.946 2.946 0 012.988 2.87c.033.878.033 1.76.002 2.638a2.9 2.9 0 01-2.941 2.84c-.412.002-.824 0-1.236 0zm-2.35-4.093a7.13 7.13 0 00.003.73 2.402 2.402 0 004.748.171 5.997 5.997 0 00-.003-1.961 2.395 2.395 0 00-3.698-1.557 2.641 2.641 0 00-1.05 2.617zM117.328 98.744l.57.031a8.535 8.535 0 01.054 1.422h-8.898v-1.405l.623-.058c.414-1.106.832-2.222 1.248-3.34.294-.788.56-1.588.882-2.364a1.624 1.624 0 012.38-.907 1.955 1.955 0 01.776 1.002c.748 1.775 1.487 3.554 2.23 5.331.036.086.079.169.135.288zm-5.833-.013h4.009l-2.13-5.063zM155.06 91.916h1.493v2.728a.968.968 0 00.69.112c.881.01 1.762.004 2.643.004a2.407 2.407 0 012.422 2.055 3.845 3.845 0 01-.291 2.522 1.623 1.623 0 01-1.454.899q-2.192.02-4.385-.002a.985.985 0 01-1.097-.966 3.527 3.527 0 01-.038-.56q-.004-3.233-.001-6.465c0-.092.01-.183.017-.327zm3.203 4.536v-.006c-.393 0-.785.002-1.178 0-.343-.002-.52.154-.515.509.006.373-.001.747.003 1.12.004.406.184.617.62.606.709-.017 1.42.007 2.129-.008a1.003 1.003 0 001.026-1.082.983.983 0 00-.965-1.134c-.371-.03-.747-.005-1.12-.005zM238.107 94.71a9.755 9.755 0 001.57.048c.58.01 1.162.002 1.743.002a2.465 2.465 0 012.484 2.482 3.747 3.747 0 01-.353 2.128 1.624 1.624 0 01-1.416.865q-2.193.023-4.385 0a.998.998 0 01-1.12-1.005 2.412 2.412 0 01-.029-.336c-.002-2.304-.001-4.609-.001-6.954h1.507zm1.715 3.966c.336 0 .673.008 1.01-.001a1.027 1.027 0 001.075-1.097.99.99 0 00-1.04-1.125c-.747-.026-1.495-.006-2.243-.006-.31 0-.501.133-.503.463-.003.412-.012.823.006 1.234a.496.496 0 00.573.535c.374-.012.748-.003 1.122-.003zM234.776 100.217h-1.635v-3.699h-3.73v3.689h-1.656V91.94h1.63v3.2h3.741v-3.217h1.65zM106.815 95.787c.475.142.951.21 1.226.655a2.927 2.927 0 01.133 2.69 1.88 1.88 0 01-2.02 1.113c-1.479-.014-2.958-.004-4.463-.004a5.28 5.28 0 01-.046-1.376c.667-.08 1.32.004 1.972-.012.543-.014 1.087.009 1.63-.007a1.101 1.101 0 001.218-1.221c-.003-.739-.411-1.126-1.226-1.132-1.178-.009-2.356-.002-3.572-.002v-1.113c.154-.125.349-.064.53-.065 1.03-.008 2.061 0 3.092-.012a1.05 1.05 0 001.174-1.013 1.14 1.14 0 00-1.204-1.13c-1.012-.013-2.024-.001-3.036-.007a1.044 1.044 0 01-.57-.062v-1.103c.116-.136.276-.084.418-.085 1.387-.004 2.775.018 4.161-.007a2.122 2.122 0 012.105 2.801c-.107.549-.62.89-1.522 1.092zM250.218 96.08l-2.938-4.141h2.014l1.936 2.716 1.955-2.73h2.009l-2.945 4.155 2.927 4.134h-2.004l-1.941-2.698-1.94 2.706h-2.004zM226.676 91.94v1.218h-2.855v7.041h-1.82v-7.022h-2.988a5.636 5.636 0 01-.04-1.238zM191.752 100.232h-1.857c-.782-.915-1.585-1.85-2.383-2.787-.315-.37-.6-.767-.936-1.117a.594.594 0 01.01-.927c.684-.793 1.356-1.596 2.034-2.394l.924-1.084h1.858c-.562.67-1.07 1.281-1.583 1.888-.447.528-.891 1.06-1.352 1.575a.634.634 0 00.003.974c1.017 1.172 2.01 2.366 3.012 3.55l.27.322zM179.232 91.93h1.811l3.207 3.918c-1.133 1.535-2.374 2.92-3.536 4.372h-1.779c.295-.377.555-.723.83-1.056.702-.851 1.41-1.696 2.115-2.545.56-.673.555-.814 0-1.484-.868-1.043-1.73-2.092-2.648-3.205zM186.108 100.22h-1.735v-8.275a16.403 16.403 0 011.735-.056zM246.381 100.162a.346.346 0 01-.29.077c-.446.003-.893.002-1.375.002v-8.306h1.665zM108.695 26.456a9.201 9.201 0 008.919 8.22c.077 1.17.067 2.345.044 3.52a61.428 61.428 0 01-1.729 13.854 43.558 43.558 0 01-4.783 11.81 35.673 35.673 0 01-6.617 8.169 32.408 32.408 0 01-5.29 3.956 23.808 23.808 0 01-4.015 1.97 1.146 1.146 0 01-.811.016 24.574 24.574 0 01-5.67-2.897 31.926 31.926 0 01-2.956-2.226 33.916 33.916 0 01-6.736-7.776 44.749 44.749 0 01-6.148-16.56 68.286 68.286 0 01-.927-13.438c.004-.147.026-.294.045-.497a8.53 8.53 0 006.016-2.351 9.187 9.187 0 002.901-5.77zM91.939 49.92v10.645h5.96V49.892h10.003v-6.28H97.878V33.005H91.91v10.633H81.875v6.282z" fill="#fdfdfe"/><path d="M133.796 96.056a2.779 2.779 0 01-.548 2.164 1.816 1.816 0 01-1.214.625 11.94 11.94 0 01-1.46.011.592.592 0 01-.614-.657c-.002-1.424-.011-2.848.003-4.272.005-.492.238-.688.745-.7.337-.007.677.025 1.011-.006a2.05 2.05 0 012.077 2.048c-.004.263 0 .525 0 .787zM149.747 98.85l-1.065-.001c-.404-.002-.629-.18-.618-.612.01-.41.01-.822-.001-1.232-.01-.35.136-.52.494-.516.785.007 1.57-.012 2.353.008a.978.978 0 011.004 1.042c.029.757-.293 1.23-.936 1.294-.407.04-.82.007-1.231.007zM149.751 93.154c.356 0 .711-.009 1.066.002a1.091 1.091 0 011.095 1.102.994.994 0 01-1.064 1.042c-.71.014-1.422.01-2.133.002-.514-.006-.647-.126-.646-.622.001-1.761-.18-1.51 1.458-1.526h.224zM205.017 96.492c.392 0 .785-.013 1.176.004a1.006 1.006 0 011.023 1.09c.025.696-.32 1.204-.938 1.241-.8.048-1.605.026-2.408.014a.5.5 0 01-.524-.54 34.94 34.94 0 01-.003-1.344.426.426 0 01.497-.467c.392.006.784.001 1.177.002zM205.06 93.154c.355 0 .71-.01 1.066.003a1.105 1.105 0 011.083 1.118 1.004 1.004 0 01-1.087 1.026c-.711.012-1.422.01-2.133 0-.49-.006-.64-.148-.646-.637-.018-1.773-.08-1.494 1.436-1.51h.28zM165.371 95.128a1.524 1.524 0 011.61-1.88 3.044 3.044 0 011.333.097 1.56 1.56 0 01.901 1.783zM125.187 96.077a2.972 2.972 0 01-.613 2.157 2.355 2.355 0 01-2.402.718 2.048 2.048 0 01-1.682-1.622 4.57 4.57 0 01.088-2.763 2.366 2.366 0 012.654-1.412 2.409 2.409 0 011.912 2.024c.037.296.03.598.043.898zM216.627 96.066a2.851 2.851 0 01-.577 2.16 2.353 2.353 0 01-2.398.729 2.059 2.059 0 01-1.691-1.614 4.609 4.609 0 01.059-2.713 2.362 2.362 0 012.67-1.474 2.398 2.398 0 011.934 2.125c.023.26.003.524.003.787zM138.615 96.147a2.641 2.641 0 011.051-2.617 2.395 2.395 0 013.698 1.557 5.997 5.997 0 01.003 1.961 2.402 2.402 0 01-4.748-.172 7.13 7.13 0 01-.004-.73zM111.495 98.73l1.88-5.062 2.129 5.063zM158.263 96.452c.373 0 .749-.025 1.12.005a.983.983 0 01.965 1.134 1.003 1.003 0 01-1.026 1.082c-.71.015-1.42-.009-2.13.008-.435.01-.615-.2-.62-.605-.003-.374.005-.748-.002-1.121-.006-.355.172-.511.515-.51.393.003.785.001 1.178.001zM239.822 98.676c-.374 0-.748-.009-1.122.003a.496.496 0 01-.573-.535c-.018-.41-.009-.822-.006-1.234.002-.33.193-.463.503-.463.748 0 1.496-.02 2.243.006a.99.99 0 011.04 1.125 1.027 1.027 0 01-1.076 1.097c-.336.009-.673.001-1.009.001z" fill="#d42c27"/><path d="M91.94 49.92H81.874v-6.282H91.91V33.005h5.968v10.608h10.024v6.28H97.9v10.672h-5.96z" fill="#0071b8"/><path fill="none" d="M0 0h340.157v127.559H0z"/></svg>