<svg xmlns="http://www.w3.org/2000/svg" width="120" height="45" viewBox="0 0 340.157 127.559"><defs/><path d="M74.805 15.626c7.42 2.692 10.026 9.172 7.444 18.508-1.737 6.282-5.968 9.13-13.839 9.228-.95.012-1.186.261-1.177 1.198.049 5.342.01 10.684.047 16.026.006.865-.161 1.15-1.12 1.111-2.21-.09-4.429-.004-6.644.01q0-22.61-.02-45.22c-.002-.737.143-.89.882-.883 4.809.043 9.618.022 14.427.022zm-7.554 13.79c0 3.01.016 6.02-.012 9.03-.006.677.136.909.89.88a6.117 6.117 0 006.058-4.558 19.202 19.202 0 00.672-8.7 9.937 9.937 0 00-2.159-5.511c-1.442-1.662-3.431-1.252-5.125-.97-.769.127-.267 1.782-.296 2.733-.072 2.363-.023 4.73-.028 7.095z" fill="#1c924a"/><path d="M280.662 41.681c-5.63.004-11.262.022-16.892-.006-.75-.004-.976.174-.937.949a30.695 30.695 0 001.645 9.805c.898 2.299 1.924 4.68 4.75 5.015 2.703.32 4.335-1.608 5.717-3.559 1.489-2.101 2.16.186 3.05.564 1.236.526-.075 1.132-.355 1.451-3.237 3.686-7.094 6.39-12.249 5.496-5.237-.907-7.581-4.953-9.084-9.591a29.041 29.041 0 01-1.33-8.67 27.363 27.363 0 011.85-10.936c2.557-6.18 7.38-9.43 13.028-8.823 4.939.532 9.166 5.12 10.36 11.227.112.572.296 1.13.447 1.695zm-11.842-4.625c6.137 0 6.21-.016 5.337-3.997-.486-2.221-.984-4.648-3.513-5.512a4.17 4.17 0 00-4.386 1.368 12.835 12.835 0 00-2.82 5.469c-.655 2.078-.276 3.092 2.16 2.7a20.471 20.471 0 013.222-.028z" fill="#221d1b"/><path d="M220.837 94.26c5.291-.104 6.796-1.697 8.354-8.974.4-1.867.778-3.658 3.234-3.688 1.07-.014 1.564.355 1.165 1.503q-1.394 4.007-2.726 8.036c-.27.82-.92 1.86-.038 2.481a2.966 2.966 0 003.358-.076c1.603-1.012 2.211-2.695 2.739-4.37.634-2.012 1.147-4.063 1.682-6.106.47-1.794 1.826-2.05 3.185-1.492 1.384.568.157 1.578-.052 2.323-.38 1.353-.956 2.651-1.335 4.032a21.424 21.424 0 014.417-4.907c1.337-1.016 2.912-1.966 4.52-.835 1.553 1.092.506 2.635.093 3.935-.66 2.08-1.466 4.113-2.194 6.171-.173.487-.292 1.088.246 1.358a4.947 4.947 0 003.869-.008c.567-.182.5-.584.49-1.029-.109-4.792 3.842-10.182 8.26-10.705 2.157-.255 4.37.212 6.605-.337 1.1-.27 1.575.735.937 1.963a39.349 39.349 0 00-3.221 7.95c-.69 2.575.847 2.857 2.634 2.407a3.98 3.98 0 003.33-3.543 63.918 63.918 0 014.03-14.905 9.25 9.25 0 011.463-2.349 1.87 1.87 0 013.318 1.43 8.983 8.983 0 01-1.935 4.936c-2.695 3.892-3.085 8.464-3.922 12.906a1.29 1.29 0 00.863 1.555c.395.146 1.034.01.707.8-.262.63-.086 1.594-1.283 1.426-1.22-.172-2.466-.26-3.15-1.497-.288-.52-.503-.284-.8-.042a7.407 7.407 0 01-6.722 1.3c-2.883-.688-1.646-2.788-1.389-4.584-1.047 1.368-1.901 2.887-3.367 3.85-1.67 1.096-3.39 1.488-5.234.37a1.152 1.152 0 00-.865-.024 11.911 11.911 0 01-4.553.608c-3.8-.162-4.822-1.645-3.531-5.192.55-1.514 1.208-2.99 1.762-4.503.146-.397.286-1.068.085-1.266-.445-.439-.94.044-1.298.354a20.902 20.902 0 00-5.515 8.473c-.933 2.366-1.95 2.671-3.853 1.231-.128-.097-.537.195-.823.284-2.476.778-4.953 1.477-6.9-1.066-.28-.365-.403-.153-.564.006a6.38 6.38 0 01-4.603 1.767 3.425 3.425 0 00-3.6 2.627 12.161 12.161 0 01-2.208 3.65c-1.01 1.232-2.65 2.07-3.91.902a2.54 2.54 0 01.726-4.143c2.92-1.627 3.984-4.315 5.003-7.142a2.096 2.096 0 00.048-.385c-1.535 2.041-3 4.735-5.687 4.286-2.906-.485-5.63.328-8.426.094-1.22-.102-2.45-.272-3.09-1.583-.332-.682-.578-.034-.77.124-2.5 2.055-5.267 1.802-8.04.84a2.066 2.066 0 01-1.166-2.793c.538-1.74 1.21-3.443 1.92-5.122a1.568 1.568 0 00-1.048-2.368c-1.023-.304-.788.87-1.008 1.367-1.494 3.372-2.659 6.964-6.211 8.868-.742.397-2.053 1.071-2.364.42-.398-.834.364-1.746 1.5-2.268 2.793-1.284 5.934-8.088 5.36-11.144a2.585 2.585 0 01.879-2.714 1.874 1.874 0 012.124-.189c1.046.544.871 1.463.736 2.438-.116.834.797.957 1.305 1.176 2.857 1.236 3.37 3.135 1.825 5.742a6.323 6.323 0 00-.662 1.468c-.303 1.065-1.592 2.396-.372 3.185a3.385 3.385 0 004.651-.802c1.828-2.237 2.4-5 3.109-7.7a8.032 8.032 0 01.721-2.232 2.522 2.522 0 013.296-1.026c1.193.536.182 1.54-.03 2.238-.768 2.535-1.688 5.023-2.522 7.538-.22.666-.637 1.554.032 2.005 1.217.82 2.605.49 3.935.084.89-.272.542-.978.541-1.525-.01-4.412 4.047-9.598 8.19-10.294 2.162-.364 4.323.991 6.616-.292 1.143-.64 1.916.4 1.321 1.857-1.459 3.574-2.864 7.17-4.291 10.756-.01.068-.022.135-.033.202zm34.585-2.282c.057.558-.053 1.236.596 1.494a2.065 2.065 0 002.078-.548c2.291-1.812 3.52-4.37 4.761-6.91.2-.408.48-1.08.305-1.305a1.72 1.72 0 00-1.764-.452c-2.617.513-5.96 4.814-5.976 7.721zm-42.97.396c.089.166.217.8.592 1.03a1.804 1.804 0 002.075-.439c2.283-1.78 3.492-4.321 4.738-6.825.22-.445.547-1.178.361-1.416a1.8 1.8 0 00-1.973-.429c-2.567.684-5.765 4.934-5.792 8.079z" fill="#1c924a"/><path d="M227.35 58.626c-4.776 5.379-12.576 3.736-15.132.263-1.813-2.464-2.065-5.34-2.11-8.185-.12-7.855-.055-15.712-.092-23.568a.898.898 0 01.727-.977c1.907-.717 3.819-1.427 5.692-2.226.796-.339.917-.18.922.631.047 8.606.097 17.213.23 25.818a11.124 11.124 0 001.275 5.062 3.149 3.149 0 003.05 1.97 3.32 3.32 0 003.09-2.114c1.34-2.973 1.226-6.155 1.251-9.298.048-5.99.063-11.982-.025-17.972a1.978 1.978 0 011.582-2.291c1.898-.61 3.747-1.37 5.616-2.068.043 1.99.12 3.981.123 5.972.013 10.26-.013 20.52.033 30.78.004 1.053-.275 1.42-1.297 1.287a7.975 7.975 0 00-1.29.013c-2.013.069-4.56.896-3.645-3.097zM143.287 28.608c3.115-4.268 6.679-5.14 10.796-3.729 4.149 1.422 5.152 5.103 5.275 8.806.301 9.065.239 18.142.343 27.215.007.664-.205.734-.812.654a9.336 9.336 0 00-3.41-.186c-2.702.712-2.975-.38-2.984-2.788-.031-8.562.625-17.15-.586-25.682-.297-2.095-.96-4.16-3.648-4.11-2.698.05-3.36 2.15-3.666 4.273-1.293 8.993-.565 18.05-.705 27.078-.018 1.214-.243 1.66-1.502 1.366a4.855 4.855 0 00-2.339-.178c-3.369 1.009-3.454-.733-3.413-3.399.15-9.791.088-19.587.025-29.38-.008-1.254.31-1.918 1.535-2.181a8.255 8.255 0 001.701-.649c2.301-1.07 4.695-2.335 3.39 2.89z" fill="#221d1b"/><path d="M103.837 44.1c.291-6.131.18-11.701 4.337-15.867a13.75 13.75 0 0113.406-3.698c4.755 1.124 6.237 5.266 7.073 9.514a44.227 44.227 0 01.302 17.739c-1.5 7.15-6.314 10.758-13.57 10.539-5.984-.181-9.616-3.925-10.843-11.372-.413-2.504-.527-5.056-.705-6.856zm6.863-.427c.029 3.408.009 6.83 1.144 10.105.897 2.59 2.47 4.55 5.466 4.516 2.863-.033 3.766-2.262 4.423-4.535 1.347-4.653 1.237-9.436 1.014-14.2-.16-3.403-.421-6.859-2.891-9.573-2.776-3.051-6.331-2.385-7.7 1.462-1.406 3.952-1.336 8.106-1.456 12.225z" fill="#1c924a"/><path d="M199.672 40.258c0 4.372-.211 8.758.06 13.113.262 4.195 2.678 5.364 6.397 3.48.284-.144.729-.514.727.141-.003 1.067 1.883 2.21.272 3.11-8.15 4.555-15.413.19-15.572-9.372-.122-7.387-.03-14.778-.052-22.167-.001-.33.247-1.024-.329-.941-3.006.43-1.307-1.925-1.777-2.964-.23-.509.316-.492.658-.548 4.063-.66 6.049-2.387 6.815-6.31.296-1.516 1.3-1.174 2.124-1.15 1.005.03.393.92.47 1.402a6.839 6.839 0 01.01 2.145c-.49 2.964.161 4.802 3.713 4.07.769-.159.901.542.714.952-.35.768.651 2.469-.764 2.271-3.42-.478-3.992.97-3.707 3.95.28 2.914.06 5.876.06 8.818zM179.444 44.917c0-3.768.053-7.536-.018-11.301-.047-2.51-1.069-4.496-3.71-5.125a6.006 6.006 0 00-6.442 2.356c-1.294 1.569-2.485-.238-3.645-.58-.644-.19.221-.942.495-1.318a12.521 12.521 0 0113.974-4.474c4.622 1.495 6.835 5.07 6.834 11.038 0 4.593.013 9.185-.004 13.777-.014 4.08-.335 8.197 1.657 11.997.334.637-.08.62-.52.605-2.187-.07-4.374-.131-6.561-.204-1.084-.036-1.135-.988-1.363-1.681-1.146-3.494-.55-7.112-.675-10.678-.052-1.469-.009-2.941-.009-4.412z" fill="#221d1b"/><path d="M93.384 32.683c.615-2.514 1.299-5.244 3.566-7.198a4.39 4.39 0 014.283-1.091c2.582.756 2.966 1.93 1.253 3.872a6.176 6.176 0 00-1.69 3.406c-3.692-1.252-4.952-.638-6.152 3.125a33.468 33.468 0 00-1.254 10.097q-.04 7.91 0 15.82c.004.702-.134.962-.89.836a6.362 6.362 0 00-2.661-.195c-3.191.943-3.26-.713-3.227-3.203.127-9.684.092-19.37.011-29.055a2.407 2.407 0 011.848-2.767c4.925-1.81 4.9-1.88 4.912 3.34.003 1.095 0 2.19 0 3.013z" fill="#1c924a"/><path d="M244.735 32.94c.702-3.026 1.42-5.41 3.332-7.205a4.767 4.767 0 013.776-1.485 3.924 3.924 0 013.28 2.116c.171.347-.813 1.323-1.342 1.946a5.58 5.58 0 00-1.595 3.417c-3.714-1.663-5.676-.302-6.612 4.581-1.528 7.967-.608 16.025-.815 24.04-.026.996-.14 1.428-1.249 1.166a4.75 4.75 0 00-2.337-.187c-3.245 1.021-3.2-.774-3.174-3.18.109-9.757.074-19.517.012-29.274a2.134 2.134 0 011.622-2.454c5.12-1.902 5.099-1.96 5.102 3.517v3.002z" fill="#221d1b"/><path d="M163.715 60.327c-.89 6.632-1.503 12.683 2.646 18.035 1.246 1.608 2.068 2.341 3.23-.173 1.833-3.966 5.445-5.546 9.533-6.01 2.604-.296 3.885 1.391 4.44 3.745.078.333.2.656.303.983a3.284 3.284 0 01.77-.541c.478-.163.575-1.41 1.339-.596.625.667 1.604 1.523.242 2.413-2.03 1.328-2.507 3.333-2.98 5.566a18.492 18.492 0 01-6.17 10.583c-2.046 1.722-4.405 2.497-6.99 1.367-2.398-1.05-3.292-3.227-3.507-5.645a13.38 13.38 0 01.204-4.478 4.527 4.527 0 00-1.177-4.526c-5.105-6.241-4.323-13.188-1.883-20.723zm10.612 16.954c-2.741 3.863-4.328 7.753-3.97 12.256.104 1.316.43 2.655 1.872 3.114 1.496.475 2.65-.362 3.578-1.423a22.911 22.911 0 004.346-8.895c.12-.406.133-.635-.39-.529-3.404.693-4.892-1.115-5.436-4.523zm6.713.98c-.22-2.093-.524-3.57-2.477-3.597a1.754 1.754 0 00-1.849 2.12 2.346 2.346 0 002.653 2.325c.85-.01 1.816-.078 1.673-.847zM175.077 42.32c2.14-.678 2.457.31 2.1 2.506-.515 3.172-.524 6.423-.956 9.612-.65 4.809-3.984 7.962-7.95 7.748-3.084-.166-5.906-4-6.008-8.463-.128-5.611 2.133-11.849 12.814-11.404zm-1.008 12.276l-5.744 2.945c3.13.226 5.389-1.05 5.732-2.967l.143.024.005-.092zm-9.542 3.766c3.809-4.926 7.231-9.35 10.645-13.781.087-.113.074-.303.108-.456a1.923 1.923 0 00-.63.213 35.955 35.955 0 00-10.123 14.024zm1.077-4.537l.727-7.269c-1.929 2.357-1.81 4.554-.727 7.269zm5.208-9.78c-1.873 1.025-2.204 2.213-1.115 3.958zm1.052 7.886c1.843.731 3.138-.16 3.018-2.015zM205.236 74.739a2.33 2.33 0 012.36-2.332 1.699 1.699 0 011.897 1.957 2.376 2.376 0 01-2.447 2.572c-1.218.043-1.83-.658-1.81-2.197zM231.579 74.537a2.28 2.28 0 012.39-2.127 1.686 1.686 0 011.851 1.898 2.394 2.394 0 01-2.393 2.634c-1.214.055-1.94-.629-1.848-2.405z" fill="#1c924a"/><path fill="none" d="M0 0h340.157v127.559H0z"/></svg>