<svg xmlns="http://www.w3.org/2000/svg" width="120" height="45" viewBox="0 0 340.157 127.559"><defs/><path d="M165.076 25.068a5.518 5.518 0 10-5.419-5.42 5.511 5.511 0 005.42 5.42zm0 12.62a5.517 5.517 0 10-5.516-5.518 5.511 5.511 0 005.516 5.518zm-20.078-3.177a5.518 5.518 0 105.518-5.518 5.52 5.52 0 00-5.518 5.518zm34.82 4.853a5.517 5.517 0 10-5.52-5.516 5.52 5.52 0 005.52 5.516zm2.69-12.444a5.517 5.517 0 10-5.517-5.517 5.51 5.51 0 005.517 5.517zm-34.906.265a5.517 5.517 0 10-5.518-5.518 5.548 5.548 0 005.518 5.518zm46.16 6.266a5.253 5.253 0 00-2.828.793 5.381 5.381 0 00-2.692 4.723 5.485 5.485 0 002.692 4.723 5.673 5.673 0 002.828.793 5.516 5.516 0 100-11.032zm5.428-11.739a5.516 5.516 0 105.516 5.517 5.545 5.545 0 00-5.516-5.517zm-8.254 25.11c-16.282-8.561-33.493-9.134-50.968-.308-.265.134-.485.265-.706.353-1.678 1.325-2.206 2.516-1.588 3.619.353 1.015 1.235 1.148 2.294.881a8.424 8.424 0 001.28-.396c16.68-8.915 33.715-9.531 49.337.176.131.044.22.089.351.132a2.39 2.39 0 002.516-.53 2.812 2.812 0 00-.707-2.957q-.883-.524-1.809-.97z" fill="#cd202a" fill-rule="evenodd"/><path d="M190.277 52.692c-13.727-9.18-29.789-10.02-48.325-.795-1.456 1.148-1.94 2.25-1.41 3.222.44 1.28 1.765.971 3.22.442 15.049-8.032 30.447-8.607 44.574.176a2.154 2.154 0 002.56-.396.176.176 0 01.04-.134 2.46 2.46 0 00-.66-2.515zm-47.795-13.415a5.528 5.528 0 00-2.516-4.633 5.43 5.43 0 00-3-.883 5.516 5.516 0 100 11.032 5.43 5.43 0 003-.883 5.532 5.532 0 002.516-4.633zm-6.003-11.784a5.518 5.518 0 10-11.034-.193v.195a5.518 5.518 0 0011.034-.002zm-28.55 40.158c.616-2.383.308-3.972-.973-4.722a4.27 4.27 0 00-4.103-1.06c-.308.134-.662.266-1.015.442-3.663 3.929-7.37 7.812-11.075 11.739-3.929-3.929-7.724-7.634-11.696-11.564a3.87 3.87 0 00-4.281 0 3.73 3.73 0 00-.883.707 4.785 4.785 0 00-.53 5.517c.485.485.926.972 1.41 1.456 4.016 4.369 8.078 8.739 12.138 13.107v16.46c1.06 2.163 2.47 3.22 4.191 3.046a4.143 4.143 0 004.149-2.736V82.92c2.515-3.046 5.074-6.135 7.59-9.18 1.723-2.027 3.4-4.102 5.078-6.09zm19.504-6.574a3.934 3.934 0 00-4.633 1.676c-1.236 1.5-2.428 3.045-3.62 4.588-5.65 7.239-10.99 14.74-16.329 22.243-1.678 2.425-3.399 4.81-5.12 7.239a4.248 4.248 0 001.588 4.898 5.41 5.41 0 003.53.926 5.857 5.857 0 001.986-.663c1.986-2.56 3.929-5.161 5.915-7.722h11.253v5.296a4.349 4.349 0 004.545 3.134 3.922 3.922 0 004.237-3.487V64.43c-.307-2.162-1.41-3.308-3.352-3.353zm-8.252 24.448c-.838 0-1.72 0-2.56.044a31.078 31.078 0 012.56-3.884 36.518 36.518 0 012.473-2.824c0 2.206.088 4.457.088 6.62-.885 0-1.721 0-2.56.044zM56.163 61.958a20.732 20.732 0 00-20.167 15.977 20.531 20.531 0 000 9.268 20.676 20.676 0 1020.167-25.245zm0 31.776a11.165 11.165 0 1111.164-11.166 11.18 11.18 0 01-11.164 11.166z" fill="#cd202a" fill-rule="evenodd"/><path d="M35.996 96.954l-6.488-9.533c1.06-1.236 2.163-2.425 3.268-3.618a14.976 14.976 0 002.25-8.958c-.574-3.929-1.854-6.93-4.103-8.739a11.863 11.863 0 00-9.223-3.795c-.178 0-.31.044-.443.044a17.731 17.731 0 00-8.56 3.398 16.95 16.95 0 00-4.81 7.24l.53 25.504c.53 3.442 2.162 5.12 4.81 5.076 2.119-.088 3.487-1.28 4.148-3.53.045-3.574.133-7.194.177-10.81a.87.87 0 01.441-1.194c1.191.265 1.411 1.148 1.853 1.9.441.616.928 1.19 1.41 1.766 2.87 3.662 5.784 7.282 8.694 10.9a4.621 4.621 0 005.251-.441 5.299 5.299 0 00.795-1.236 4.075 4.075 0 00.088-3.84c0-.045-.045-.09-.088-.134zm-14.74-16.503a4.657 4.657 0 114.634-4.635 4.643 4.643 0 01-4.635 4.635zm267.208-19.463a4.28 4.28 0 00-4.633 3.972v33.803c.751 2.736 2.427 3.53 4.457 3.487a5.204 5.204 0 005.163-3.53V64.784c-.707-2.648-2.34-3.929-4.987-3.796zm38.793-.266a4.282 4.282 0 00-4.148 2.957v20.167c-4.368-7.237-8.738-14.52-13.107-21.711-1.457-1.456-3.442-1.81-6.002-1.015a5.414 5.414 0 00-3.619 3.97v33.76c.088 2.206 1.59 3.22 4.502 3.134 2.296-.177 3.707-1.235 4.281-3.134-.043-7.015-.043-14.078-.088-21.095q6.423 10.974 12.797 21.976c.971 1.501 2.427 2.428 5.031 2.031a5.25 5.25 0 004.9-3.618V63.767a4.473 4.473 0 00-4.547-3.045zm-54.237.355a4.279 4.279 0 00-4.148 2.955V84.2c-4.368-7.237-8.738-14.519-13.107-21.713-1.412-1.456-3.442-1.807-6.002-1.014a5.503 5.503 0 00-3.619 3.971v33.804c.089 2.164 1.59 3.177 4.545 3.088a4.342 4.342 0 004.237-3.088c-.043-7.061-.043-14.121-.088-21.139l12.843 21.977c.926 1.499 2.38 2.425 4.984 2.03a5.206 5.206 0 004.9-3.62V64.12a4.433 4.433 0 00-4.545-3.042zM202.985 89.01c-2.693 2.647-5.34 4.191-7.856 4.545-3.398.441-6.045-.132-7.811-1.766a11.895 11.895 0 01-4.634-6.531 14.718 14.718 0 01.132-7.324 9.97 9.97 0 014.502-5.473 11.947 11.947 0 016.532-1.809 13.647 13.647 0 017.767 3.355c2.249 1.588 4.058 1.588 6.09.089a4.846 4.846 0 00.22-6.223c-.53-.883-3.266-6.399-14.652-6.619-11.385-.265-20.655 9.223-20.655 20.609a20.682 20.682 0 0020.655 20.651c11.386 0 14.21-5.427 15.447-7.5.838-2.074.66-3.795-.574-5.076a4.374 4.374 0 00-5.163-.928zm20.167-21.668q-1.773-2.323-3.619-4.589a3.937 3.937 0 00-4.633-1.676c-1.944.044-3.09 1.192-3.355 3.354v34.775a3.855 3.855 0 004.19 3.487 4.368 4.368 0 004.591-3.134v-5.296h11.254c1.984 2.56 3.927 5.16 5.91 7.722a5.208 5.208 0 005.52-.264 4.25 4.25 0 001.59-4.898c-7.062-9.887-13.991-19.86-21.448-29.481zm0 18.182c-.838-.043-1.721-.043-2.561-.043 0-2.162.088-4.413.088-6.619a36.518 36.518 0 012.473 2.824 31.271 31.271 0 012.56 3.883c-.883-.045-1.722-.045-2.56-.045zm-66.989 7.809h-10.679V64.517c-.131-4.545-9.003-4.502-9.003 0V99.47c.133 1.456.662 2.25 1.633 2.382h18.05c4.633-.088 4.72-8.693 0-8.518z" fill="#cd202a" fill-rule="evenodd"/><path fill="none" d="M0 0h340.157v127.559H0z"/></svg>